PathFileType	4	(X/Y/Z)	H:\MAC\Pilotos\MDrajagopal3\static1.trc																																																																																																																																																																																																																																								
DataRate	CameraRate	NumFrames	NumMarkers	Units	OrigDataRate	OrigDataStartFrame	OrigNumFrames																																																																																																																																																																																																																																				
150	150	4	78	mm	150	1313	1500																																																																																																																																																																																																																																				
Frame#	Time	RACR			LACR			C7			CLAV			RASH			RPSH			LASH			LPSH			RUA1			RUA2			RUA3			RLEL			RMEL			RFAsuperior			RFAradius			RFAulna			LUA1			LUA2			LUA3			LLEL			LMEL			LFAsuperior			LFAradius			LFAulna			RASI			LASI			RPSI			LPSI			RTH1			RTH2			RTH3			RLFC			RMFC			RTB1			RTB2			RTB3			RLMAL			RMMAL			RCAL			RTOE			RMT5			LTH1			LTH2			LTH3			LLFC			LMFC			LTB1			LTB2			LTB3			LLMAL			LMMAL			LCAL			LTOE			LMT5			RSJC			LSJC			RHJC			LHJC			RKJC			LKJC			RAJC			LAJC			REJC			LEJC			Mid_ASIS			Mid_PSIS			RASHv			RPSHv			LPSHv			RLFCv			RMFCv			RLMALv			RMMALv			LLFCv			LMFCv			LLMALv			LMMALv			LASHv		
		X1	Y1	Z1	X2	Y2	Z2	X3	Y3	Z3	X4	Y4	Z4	X5	Y5	Z5	X6	Y6	Z6	X7	Y7	Z7	X8	Y8	Z8	X9	Y9	Z9	X10	Y10	Z10	X11	Y11	Z11	X12	Y12	Z12	X13	Y13	Z13	X14	Y14	Z14	X15	Y15	Z15	X16	Y16	Z16	X17	Y17	Z17	X18	Y18	Z18	X19	Y19	Z19	X20	Y20	Z20	X21	Y21	Z21	X22	Y22	Z22	X23	Y23	Z23	X24	Y24	Z24	X25	Y25	Z25	X26	Y26	Z26	X27	Y27	Z27	X28	Y28	Z28	X29	Y29	Z29	X30	Y30	Z30	X31	Y31	Z31	X32	Y32	Z32	X33	Y33	Z33	X34	Y34	Z34	X35	Y35	Z35	X36	Y36	Z36	X37	Y37	Z37	X38	Y38	Z38	X39	Y39	Z39	X40	Y40	Z40	X41	Y41	Z41	X42	Y42	Z42	X43	Y43	Z43	X44	Y44	Z44	X45	Y45	Z45	X46	Y46	Z46	X47	Y47	Z47	X48	Y48	Z48	X49	Y49	Z49	X50	Y50	Z50	X51	Y51	Z51	X52	Y52	Z52	X53	Y53	Z53	X54	Y54	Z54	X55	Y55	Z55	X56	Y56	Z56	X57	Y57	Z57	X58	Y58	Z58	X59	Y59	Z59	X60	Y60	Z60	X61	Y61	Z61	X62	Y62	Z62	X63	Y63	Z63	X64	Y64	Z64	X65	Y65	Z65	X66	Y66	Z66	X67	Y67	Z67	X68	Y68	Z68	X69	Y69	Z69	X70	Y70	Z70	X71	Y71	Z71	X72	Y72	Z72	X73	Y73	Z73	X74	Y74	Z74	X75	Y75	Z75	X76	Y76	Z76	X77	Y77	Z77	X78	Y78	Z78
																																																																																																																																																																																																																																											
1313	8.747	691.27002	1391.23889	1385.25342	702.85443	1393.20093	1048.2478	644.23987	1411.03491	1206.66089	792.64594	1370.67578	1259.83521	761.79443	1364.39246	1404.93652	654.96472	1355.96301	1396.42395	776.48022	1376.75574	1042.44409	673.77539	1354.09265	1029.20752	696.57526	1272.67212	1459.38293	738.71106	1204.68799	1478.68091	665.94452	1162.0343	1452.71375	683.06195	1117.59753	1492.59033	740.93427	1090.64209	1431.67725	756.09808	1041.09961	1576.15515	777.80487	966.5058	1628.10876	741.68451	914.29639	1586.45972	705.32458	1293.95837	977.42932	748.58752	1209.07104	950.05573	687.66833	1166.51904	989.05536	718.65259	1130.41431	924.89136	749.57092	1090.63989	1001.56287	781.93518	1023.65076	849.63995	828.96277	962.55725	825.54364	779.72424	912.6366	847.0191	829.50201	903.71344	1338.15625	833.43573	898.77582	1110.96997	654.81812	926.74585	1261.75525	652.00122	925.66046	1179.45886	735.08795	798.27753	1389.77783	691.51422	639.64581	1371.69556	758.17603	610.13818	1400.16052	753.01697	469.73987	1392.0415	759.45831	450.00021	1263.90112	785.80585	342.70154	1355.0155	703.88983	326.90778	1425.78125	738.76752	200.02824	1405.30835	684.88849	82.69389	1407.49976	710.11743	86.725	1319.04712	636.28534	35.97668	1372.03589	845.5282	36.94476	1377.79602	806.95618	33.45469	1424.96997	749.61987	805.82837	1048.69543	702.42822	656.90149	1060.46375	753.85797	580.40204	1045.90015	757.63684	467.27319	1053.92627	743.46704	450.44919	1179.31189	783.89819	352.68112	1095.40576	692.35974	312.52988	1019.55396	746.66302	183.08304	1059.02234	692.68597	77.14638	1044.37207	712.1806	87.03024	1132.87598	643.5481	45.78344	1075.14563	844.87952	37.01273	1079.24463	817.51672	29.77364	1031.27087	708.37958	1360.17773	1400.6803	725.12781	1365.42419	1035.82581	737.065	839.5	1321.662	741.4	839.332	1117.608	756.23767	459.87003	1327.97131	750.55194	458.86121	1116.61902	697.50293	84.70944	1363.27344	702.43329	82.08831	1088.62402	711.99811	1104.11975	1462.13379	734.11176	1110.5271	963.22711	831.46887	901.24463	1224.56311	653.40967	926.20319	1220.60706	800.80609	1311.73474	1443.70288	692.96747	1316.91626	1417.19629	738.04706	1395.21326	994.9364	725.65076	501.01987	1414.66809	784.16895	460.2348	1298.19043	703.27155	66.87066	1446.7738	729.21448	61.96212	1358.99292	774.55981	515.1759	1013.02539	783.82019	485.18527	1142.37488	710.04651	60.02863	1031.38892	746.93805	72.94559	1114.65051	823.67505	1373.2207	944.80066
1314	8.753	691.25446	1391.24792	1385.25122	702.84943	1393.19263	1048.24707	644.25604	1411.00171	1206.67419	792.63849	1370.66992	1259.84119	761.78723	1364.39258	1404.93433	654.95331	1355.96228	1396.43933	776.46606	1376.75061	1042.44861	673.75751	1354.08643	1029.19751	696.56012	1272.68079	1459.38281	738.69012	1204.69763	1478.69006	665.91913	1162.03943	1452.72302	683.04095	1117.60291	1492.58887	740.92072	1090.6521	1431.67639	756.06274	1041.11084	1576.15784	777.77472	966.51245	1628.11658	741.65424	914.30981	1586.46973	705.31903	1293.94678	977.4408	748.59052	1209.05139	950.07001	687.66895	1166.50281	989.06476	718.66846	1130.39941	924.90979	749.57886	1090.63586	1001.58972	781.97205	1023.62585	849.67365	828.98639	962.53894	825.58533	779.758	912.61597	847.06903	829.49457	903.71631	1338.16882	833.4389	898.78101	1110.97461	654.81769	926.74243	1261.76587	651.99182	925.65753	1179.46118	735.08014	798.2793	1389.78748	691.51807	639.64996	1371.70435	758.17761	610.14545	1400.16699	753.01666	469.74585	1392.05518	759.46832	450.00491	1263.90076	785.81244	342.69534	1355.0249	703.88489	326.91058	1425.78589	738.76947	200.03314	1405.31812	684.90295	82.68481	1407.50208	710.11761	86.71899	1319.03882	636.28754	35.97742	1372.03271	845.52747	36.93717	1377.79846	806.96289	33.46043	1424.97107	749.61627	805.83411	1048.70361	702.42023	656.89832	1060.48132	753.85577	580.39642	1045.90454	757.6438	467.26758	1053.93262	743.4563	450.45169	1179.32568	783.88348	352.67038	1095.40198	692.46161	312.2272	1020.16052	746.65765	183.0742	1059.02319	692.69464	77.16163	1044.37573	712.17487	87.0322	1132.88123	643.55139	45.79648	1075.16125	844.87939	37.01204	1079.23987	817.51849	29.77944	1031.26685	708.37024	1360.17737	1400.68677	725.11176	1365.41846	1035.823	737.063	839.499	1321.669	741.402	839.334	1117.615	756.24249	459.8754	1327.97803	750.55005	458.85965	1116.62915	697.51031	84.7019	1363.27039	702.43475	82.09692	1088.62854	711.98083	1104.12756	1462.13269	734.12366	1110.51758	963.24976	831.46674	901.24866	1224.57166	653.40479	926.20001	1220.61353	800.79498	1311.73315	1443.7041	692.95703	1316.92041	1417.19116	738.03784	1395.20276	994.94891	725.66235	501.02075	1414.6748	784.18286	460.24066	1298.19653	703.25574	66.87587	1446.79736	729.20795	61.95882	1359.01978	774.54236	515.18121	1013.02759	783.82727	485.18985	1142.37512	710.7962	59.68689	1032.02502	747.95563	72.83414	1115.13135	823.67078	1373.21094	944.82129
1315	8.76	691.23895	1391.2561	1385.25122	702.82733	1393.18396	1048.24243	644.23712	1410.99768	1206.67285	792.62823	1370.66296	1259.84106	761.77466	1364.38916	1404.92505	654.92096	1355.97791	1396.427	776.45386	1376.75	1042.45313	673.73944	1354.08472	1029.1908	696.54437	1272.68945	1459.38989	738.67035	1204.70313	1478.6936	665.89429	1162.0481	1452.72168	683.01147	1117.62012	1492.60144	740.89294	1090.65381	1431.68701	756.04132	1041.1228	1576.17151	777.74109	966.52271	1628.13306	741.62866	914.30865	1586.48438	705.32233	1293.93323	977.43829	748.58978	1209.04126	950.08588	687.67358	1166.49792	989.07196	718.69019	1130.37439	924.91711	749.58197	1090.62109	1001.60675	781.93311	1023.5451	849.73181	829.02026	962.52417	825.62189	779.80127	912.59973	847.10712	829.495	903.71735	1338.17725	833.44769	898.79041	1110.99316	654.80389	926.74194	1261.77856	651.98645	925.65405	1179.48254	735.07526	798.27948	1389.80017	691.50702	639.64764	1371.71863	758.1731	610.14929	1400.17664	753.02374	469.73923	1392.04675	759.45447	450.00842	1263.90405	785.81244	342.70001	1355.04041	703.88715	326.90799	1425.79504	738.77216	200.0312	1405.31042	684.8985	82.69007	1407.50574	710.12604	86.7292	1319.04248	636.28363	35.97924	1372.03613	845.5191	36.93438	1377.79407	806.95782	33.4566	1424.97253	749.61761	805.82574	1048.70508	702.41528	656.90051	1060.48486	753.8338	580.67371	1045.91455	757.6449	467.27948	1053.93066	743.47772	450.44971	1179.30896	783.89337	352.67432	1095.40149	692.35773	312.53058	1019.55652	746.66388	183.07852	1059.03088	692.6972	77.16552	1044.38513	712.16931	87.03304	1132.87842	643.5517	45.78119	1075.15625	844.87976	37.00188	1079.25122	817.51978	29.77592	1031.26123	708.34778	1360.18347	1400.67603	725.09668	1365.41736	1035.82202	737.063	839.497	1321.682	741.405	839.338	1117.627	756.23907	459.87384	1327.97546	750.56134	458.86459	1116.61975	697.51227	84.70963	1363.27417	702.43323	82.09928	1088.63171	711.95221	1104.13696	1462.14417	734.13611	1110.49768	963.26196	831.47131	901.25391	1224.58521	653.3952	926.198	1220.63062	800.78247	1311.73499	1443.7157	692.94427	1316.93188	1417.20081	738.0426	1395.19031	994.93726	725.65326	501.02084	1414.68457	784.16205	460.24094	1298.20044	703.25092	66.86993	1446.77673	729.20441	61.96368	1358.99878	774.52649	515.17078	1013.03375	783.81018	485.18103	1142.38171	710.02545	60.02567	1031.38574	746.91919	72.94067	1114.64673	823.68042	1373.18921	944.8222
1316	8.767	691.21802	1391.24744	1385.25659	702.81921	1393.17944	1048.23853	644.2262	1410.98987	1206.67456	792.61761	1370.65417	1259.84521	761.75903	1364.39844	1404.93225	654.91394	1355.97534	1396.44263	776.43945	1376.72754	1042.45862	673.73767	1354.07715	1029.19226	696.53522	1272.69409	1459.39111	738.6488	1204.70398	1478.70825	665.88403	1162.05884	1452.72876	682.99255	1117.62268	1492.60876	740.86584	1090.66431	1431.6897	756.01111	1041.13025	1576.18433	777.71289	966.52393	1628.14343	741.57922	914.32001	1586.48694	705.31451	1293.92395	977.44073	748.5976	1209.02271	950.09717	687.67334	1166.48096	989.07666	718.69867	1130.35815	924.93701	749.57941	1090.62097	1001.63959	781.96405	1023.51892	849.75604	829.06036	962.5069	825.67157	779.84546	912.56848	847.14447	829.4873	903.71631	1338.18286	833.43176	898.78638	1110.99573	654.7984	926.73938	1261.79199	651.98303	925.6463	1179.48584	735.07166	798.28094	1389.80774	691.50244	639.64886	1371.72925	758.15717	610.14453	1400.1842	753.02545	469.74951	1392.05688	759.4585	450.01434	1263.90259	785.81018	342.69128	1355.0415	703.8847	326.90808	1425.802	738.76965	200.02902	1405.31885	684.90674	82.69022	1407.50366	710.1239	86.7287	1319.04468	636.29004	35.97826	1372.03577	845.52844	36.93892	1377.79272	806.95789	33.44775	1424.97107	749.60791	805.83258	1048.71094	702.41565	656.89807	1060.49658	753.84436	580.40436	1045.91772	757.63916	467.27783	1053.93774	743.46417	450.45752	1179.3302	783.8927	352.67285	1095.40784	692.35889	312.53128	1019.55817	746.6618	183.08278	1059.02551	692.69434	77.16145	1044.38892	712.18042	87.04237	1132.8772	643.55621	45.79213	1075.14539	844.91412	36.99108	1079.25439	817.50604	29.77378	1031.27173	708.33649	1360.18689	1400.6875	725.08856	1365.40234	1035.82544	737.058	839.495	1321.689	741.394	839.333	1117.635	756.24194	459.88193	1327.97974	750.5517	458.86768	1116.63391	697.51532	84.70946	1363.27417	702.43738	82.10191	1088.63306	711.9292	1104.14343	1462.14917	734.13904	1110.48962	963.28827	831.45953	901.25134	1224.58936	653.39075	926.19287	1220.63892	800.77783	1311.73425	1443.73352	692.94922	1316.93396	1417.19812	738.02527	1395.18396	994.94043	725.64716	501.02295	1414.69885	784.15717	460.23996	1298.21631	703.23785	66.87193	1446.80029	729.18787	61.95815	1359.02173	774.53418	515.17926	1013.03827	783.83313	485.1907	1142.3855	710.02954	60.02628	1031.3772	746.92096	72.93797	1114.63965	823.67365	1373.18555	944.84204
